<!-- Icon created by yogiaprelliyanto (https://www.svgrepo.com/author/yogiaprelliyanto/). 
     License: CC Attribution License (https://www.svgrepo.com/page/licensing#CC%20Attribution)
  -->
<?xml version="1.0" encoding="UTF-8" standalone="no"?>

<svg version="1.1" id="icon" x="0px" y="0px" viewBox="0 0 32 32" xml:space="preserve" sodipodi:docname="rflib_ActionIcon.svg" inkscape:version="1.2 (dc2aedaf03, 2022-05-15)" xmlns:inkscape="http://www.inkscape.org/namespaces/inkscape" xmlns:sodipodi="http://sodipodi.sourceforge.net/DTD/sodipodi-0.dtd" xmlns="http://www.w3.org/2000/svg" xmlns:svg="http://www.w3.org/2000/svg">
    <rect height="10" rx="1" ry="1" width="6" x="17" y="17"/>
    <rect height="16" rx="1" ry="1" width="6" x="25" y="11"/>
    <rect height="12" rx="1" ry="1" width="6" x="9" y="15"/>
    <rect height="7" rx="1" ry="1" width="6" x="1" y="20"/>
    <path fill="#ffad1d" d="M31 25H1v3a3 3 0 0 0 3 3h24a3 3 0 0 0 3-3Z"/>
    <path fill="#ffad1d" d="M4 17H2a1 1 0 0 1 0-2h1.52L10 6.94a1 1 0 1 1 1.56 1.24l-6.78 8.44A1 1 0 0 1 4 17ZM21.25 11.44a1 1 0 0 1-.62-.22 1 1 0 0 1-.16-1.4l6.75-8.44A1 1 0 0 1 28 1h2a1 1 0 0 1 0 2h-1.52L22 11.06a1 1 0 0 1-.75.38ZM12.999 7.998l1.2-1.6 4.8 3.599-1.2 1.6z"/>
    <circle cx="12" cy="6" r="3"/>
    <circle cx="20" cy="11.99" r="3"/>
    <path fill="#ffad1d" d="M3.617 30.955a3.009 3.009 0 0 1-2.284-1.638c-.286-.584-.284-.566-.3-2.538l-.014-1.766H30.98l-.014 1.766c-.016 1.974-.014 1.953-.302 2.541-.37.754-1.073 1.331-1.916 1.571l-.3.086-12.295.005c-6.761.003-12.403-.01-12.537-.027zM19.545 14.938a3.03 3.03 0 0 1-1.899-1.132c-.617-.814-.782-1.77-.472-2.748.143-.45.342-.763.736-1.157.395-.395.708-.594 1.158-.737a2.955 2.955 0 0 1 2.341.203c1.309.684 1.91 2.316 1.365 3.7-.137.349-.464.843-.708 1.071-.677.633-1.66.945-2.521.8zM11.582 8.951c-.751-.11-1.49-.538-1.93-1.12a3.706 3.706 0 0 1-.55-1.114c-.09-.343-.09-1.086 0-1.429a3.07 3.07 0 0 1 2.133-2.168c.394-.112 1.1-.12 1.484-.016.997.27 1.778.994 2.104 1.953.598 1.76-.576 3.638-2.436 3.896-.33.046-.477.046-.805-.002z"/>
    <path fill="#000000" d="M1.023 22.88v-2.094l.09-.193a1.1 1.1 0 0 1 .514-.506c.103-.043.554-.053 2.377-.052 2.509 0 2.409-.01 2.69.272.28.28.272.198.273 2.554v2.114H1.023V22.88zM9.022 20.352l.01-4.622.115-.207a.986.986 0 0 1 .581-.467c.111-.032.762-.041 2.354-.033 2.175.012 2.202.013 2.357.096.087.046.22.154.297.239.273.302.26.048.26 5.088v4.529H9.012zM17.012 21.356l.01-3.619.085-.156a1.17 1.17 0 0 1 .471-.47c.13-.064.304-.069 2.436-.069h2.297l.182.107c.1.06.226.165.28.234.221.292.214.148.214 4.026v3.566H17.002zM25.033 18.373c0-5.84.006-6.619.059-6.744a.935.935 0 0 1 .447-.494l.208-.114 2.156-.012c2.515-.013 2.462-.019 2.785.314.119.122.213.261.242.358.036.123.047 1.644.047 6.726v6.568h-5.944zM22.47 10.263c-.204-.343-.814-.849-1.233-1.021-.099-.041-.18-.087-.18-.103s1.415-1.798 3.144-3.96c2.855-3.569 3.163-3.94 3.348-4.043l.205-.113h1.254c1.22 0 1.26.002 1.414.085.207.11.452.391.51.583.072.241.055.506-.047.722a.914.914 0 0 1-.487.479c-.158.071-.252.079-1.044.08h-.87l-2.179 2.711a8403.218 8403.218 0 0 0-2.975 3.702l-.795.99zM15.403 9.786c-.913-.687-1.663-1.263-1.668-1.281-.005-.018.08-.1.187-.183a3.17 3.17 0 0 0 .405-.405c.204-.247.515-.802.515-.92 0-.032.023-.048.052-.037.048.018 3.278 2.42 3.361 2.5.021.02-.01.068-.077.118-.382.285-.825.868-.972 1.278-.037.101-.084.183-.105.181-.022-.001-.786-.565-1.698-1.251zM1.663 16.925a.98.98 0 0 1-.514-.434c-.093-.158-.107-.223-.107-.491s.014-.333.107-.49c.06-.101.165-.227.234-.28.25-.19.393-.214 1.301-.214h.841l2.966-3.69 2.966-3.689.097.128c.315.42.718.75 1.171.962.142.066.257.127.257.136 0 .024-6.127 7.653-6.269 7.806a1.28 1.28 0 0 1-.274.213c-.148.08-.205.083-1.39.091-1.002.006-1.263-.003-1.386-.048z"/>
</svg>
