<?xml version="1.0" encoding="UTF-8" standalone="no"?>
<!-- Generator: Adobe Illustrator 19.0.0, SVG Export Plug-In . SVG Version: 6.00 Build 0)  -->

<svg version="1.1" id="icon" x="0px" y="0px" viewBox="0 0 496 496" xml:space="preserve" sodipodi:docname="rflib_ActionIcon.svg" inkscape:version="1.2 (dc2aedaf03, 2022-05-15)" xmlns:inkscape="http://www.inkscape.org/namespaces/inkscape" xmlns:sodipodi="http://sodipodi.sourceforge.net/DTD/sodipodi-0.dtd" xmlns="http://www.w3.org/2000/svg" xmlns:svg="http://www.w3.org/2000/svg">
   <defs id="defs57" />
   <sodipodi:namedview id="namedview55" pagecolor="#ffffff" bordercolor="#000000" borderopacity="0.25" inkscape:showpageshadow="2" inkscape:pageopacity="0.0" inkscape:pagecheckerboard="0" inkscape:deskcolor="#d1d1d1" showgrid="false" inkscape:zoom="1.6875" inkscape:cx="248.59259" inkscape:cy="248.88889" inkscape:window-width="1920" inkscape:window-height="1017" inkscape:window-x="-8" inkscape:window-y="-8" inkscape:window-maximized="1" inkscape:current-layer="icon" />
   <g id="g22">
      <g id="g20">
         <g id="g18">
            <path fill="#000000" d="M472,32h-72V0H100.688L0,100.688V496h400V192h72c13.232,0,24-10.768,24-24V56C496,42.768,485.232,32,472,32z M96,27.312     V96H27.312L96,27.312z M384,480H16V112h96V16h272v16H184c-13.232,0-24,10.768-24,24v112c0,13.232,10.768,24,24,24h200V480z      M480,168c0,4.408-3.592,8-8,8H184c-4.408,0-8-3.592-8-8V56c0-4.408,3.592-8,8-8h288c4.408,0,8,3.592,8,8V168z" id="path2" />
            <path fill="#000000" d="M424,80c13.232,0,24,10.768,24,24h16c0-22.056-17.944-40-40-40c-22.056,0-40,17.944-40,40v16c0,22.056,17.944,40,40,40     c9.04,0,17.296-3.128,24-8.208V160h16v-40h-16h-16v16h9.76c-4.392,4.872-10.696,8-17.76,8c-13.232,0-24-10.768-24-24v-16     C400,90.768,410.768,80,424,80z" id="path4" />
            <rect x="32" y="128" width="16" height="16" id="rect6" />
            <rect x="64" y="128" width="16" height="16" id="rect8" />
            <rect x="32" y="160" width="16" height="16" id="rect10" />
            <path fill="#000000" d="M328,64c-22.056,0-40,17.944-40,40v16c0,22.056,17.944,40,40,40c22.056,0,40-17.944,40-40v-16     C368,81.944,350.056,64,328,64z M352,120c0,13.232-10.768,24-24,24s-24-10.768-24-24v-16c0-13.232,10.768-24,24-24     s24,10.768,24,24V120z" id="path12" />
            <path fill="#000000" d="M208,64 192,64 192,160 272,160 272,144 208,144z" id="polygon14" />
            <path fill="#000000" d="M72,464h59.312l184.4-184.4c7.92-7.92,12.288-18.456,12.288-29.656C328,226.816,309.184,208,286.056,208     c-11.2,0-21.736,4.36-29.656,12.288L72,404.688V464z M136,436.688L123.312,424L248,299.312L260.688,312L136,436.688z      M267.712,231.6c4.904-4.904,11.416-7.6,18.344-7.6C300.36,224,312,235.64,312,249.944c0,6.928-2.696,13.44-7.6,18.344l-8.4,8.4     L259.312,240L267.712,231.6z M248,251.312L284.688,288L272,300.688L235.312,264L248,251.312z M224,275.312L236.688,288     L112,412.688L99.312,400L224,275.312z M88,411.312L124.688,448H88V411.312z" id="path16" />
         </g>
      </g>
   </g>


   <path fill="#ffad1d" d="M 16.296296,296 V 112.2963 h 48 48.000004 v -48.000004 -48 H 248 383.7037 V 24 31.703704 H 282.49487 c -109.51494,0 -104.92481,-0.127978 -110.31268,3.075638 -3.01809,1.794548 -7.55187,6.292458 -9.24016,9.167062 -3.29776,5.614984 -3.23833,4.365852 -3.23833,68.053596 0,63.68775 -0.0594,62.43861 3.23833,68.05359 3.19847,5.44594 9.64934,10.19918 15.74969,11.60498 1.7514,0.4036 36.74056,0.61364 103.8268,0.62324 l 101.18518,0.0145 V 336 479.7037 H 200 16.296296 Z m 208.962914,74.51852 c 51.53217,-51.57778 94.49432,-94.97778 95.47144,-96.44445 5.10807,-7.66726 7.26935,-14.8028 7.26935,-24 0,-11.83152 -3.93902,-21.4522 -12.13448,-29.63726 -2.61492,-2.61161 -6.48774,-5.75177 -8.60626,-6.97813 -13.33606,-7.71993 -29.91602,-7.49175 -43.55556,0.59945 -2.73611,1.6231 -25.23658,23.76953 -97.62963,96.09341 L 72,404.13576 v 30.08026 30.08028 h 29.78217 29.78217 z M 48.296296,168 v -8.2963 H 40 31.703704 V 168 176.2963 H 40 48.296296 Z m 0,-32 v -8.2963 H 40 31.703704 V 136 144.2963 H 40 48.296296 Z m 32,0 v -8.2963 H 72 63.703704 V 136 144.2963 H 72 80.296296 Z" id="path258" />
</svg>